# AST/ASF file generated using VICON BodyLanguage
# -----------------------------------------------
:version 1.10
:name VICON
:units
  mass 1.0
  length 0.45
  angle deg
:documentation
   .ast/.asf automatically generated from VICON data using
   VICON BodyBuilder and BodyLanguage model FoxedUp or BRILLIANT.MOD
:root
   order TX TY TZ RX RY RZ
   axis XYZ
   position 0 0 0  
   orientation 0 0 0 
:bonedata
  begin
     id 1 
     name lhipjoint
     direction 0.611804 -0.747784 0.257906 
     length 2.29243 
     axis 0 0 0  XYZ
  end
  begin
     id 2 
     name lfemur
     direction 0.34202 -0.939693 0  
     length 7.31159  
     axis 0 0 20  XYZ
    dof rx ry rz
    limits (-160.0 20.0)
           (-70.0 70.0)
           (-60.0 70.0)
  end
  begin
     id 3 
     name ltibia
     direction 0.34202 -0.939693 0   
     length 7.33391   
     axis 0 0 20   XYZ
    dof rx
    limits (-10.0 170.0)
  end
  begin
     id 4 
     name lfoot
     direction 0.122263 -0.335914 0.933924   
     length 1.76083   
     axis -90 7.62852e-016 20   XYZ
    dof rx rz
    limits (-45.0 90.0)
           (-70.0 20.0)
  end
  begin
     id 5 
     name ltoes
     direction 1.53533e-011 -4.2177e-011 1   
     length 0.879206   
     axis -90 7.62852e-016 20   XYZ
    dof rx
    limits (-90.0 20.0)
  end
  begin
     id 6 
     name rhipjoint
     direction -0.646469 -0.721248 0.248754   
     length 2.37677  
     axis 0 0 0  XYZ 
  end
  begin
     id 7 
     name rfemur
     direction -0.34202 -0.939693 0   
     length 7.18623   
     axis 0 0 -20   XYZ
    dof rx ry rz
    limits (-160.0 20.0)
           (-70.0 70.0)
           (-70.0 60.0)
  end
  begin
     id 8 
     name rtibia
     direction -0.34202 -0.939693 0   
     length 7.36567   
     axis 0 0 -20   XYZ
    dof rx
    limits (-10.0 170.0)
 end
 begin
     id 9 
     name rfoot
     direction -0.126681 -0.348054 0.928876   
     length 1.71902  
     axis -90 -7.62852e-016 -20   XYZ
    dof rx rz
    limits (-45.0 90.0)
           (-20.0 70.0)
  end
  begin
     id 10 
     name rtoes
     direction -1.53551e-011 -4.21898e-011 1   
     length 0.857792   
     axis -90 -7.62852e-016 -20   XYZ
    dof rx
    limits (-90.0 20.0)
  end
  begin
     id 11 
     name lowerback
     direction 0.0106509 0.999778 0.0181844   
     length 2.07668   
     axis 0 0 0   XYZ
    dof rx ry rz
    limits (-20.0 45.0)
           (-30.0 30.0)
           (-30.0 30.0)
  end
  begin
     id 12 
     name upperback
     direction -0.00456018 0.999989 -0.000590935   
     length 2.08011   
     axis 0 0 0   XYZ
    dof rx ry rz
    limits (-20.0 45.0)
           (-30.0 30.0)
           (-30.0 30.0)
  end
  begin
     id 13 
     name thorax
     direction -0.00910382 0.999916 -0.00923765   
     length 2.07397   
     axis 0 0 0   XYZ
    dof rx ry rz
    limits (-20.0 45.0)
           (-30.0 30.0)
           (-30.0 30.0)
  end
  begin
     id 14 
     name lowerneck
     direction 0.00171967 0.99778 0.0665733   
     length 1.67556   
     axis 0 0 0   XYZ
    dof rx ry rz
    limits (-20.0 45.0)
           (-30.0 30.0)
           (-30.0 30.0)
  end
  begin
     id 15 
     name upperneck
     direction -0.0143166 0.991302 -0.130828   
     length 1.68462   
     axis 0 0 0   XYZ
    dof rx ry rz
    limits (-20.0 45.0)
           (-30.0 30.0)
           (-30.0 30.0)
  end
  begin
     id 16
     name head
     direction -0.00606378 0.998665 -0.0512995  
     length 1.69269  
     axis 0 0 0   XYZ
    dof rx ry rz
    limits (-20.0 45.0)
           (-30.0 30.0)
           (-30.0 30.0)
  end
  begin
     id 17 
     name lclavicle
     direction 0.9638 0.179341 0.197297  
     length 4.12888  
     axis 0 0 0   XYZ
    dof ry rz
    limits (-20.0 10.0)
           (0.0 20.0)
  end
  begin
     id 18 
     name lhumerus
     direction 1 -4.48972e-011 -2.47351e-027   
     length 5.01834   
     axis -180 -30 -90   XYZ
    dof rx ry rz
    limits (-60.0 90.0)
           (-90.0 90.0)
           (-90.0 90.0)
  end
  begin
     id 19
     name lradius
     direction 1 -4.48965e-011 1.51591e-026   
     length 3.4869   
     axis -180 -30 -90   XYZ
    dof rx
    limits (-10.0 170.0)
  end
  begin
     id 20
     name lwrist
     direction 1 -4.48957e-011 2.70032e-026   
     length 1.74345   
     axis -1.81515e-014 90 90   XYZ
    dof ry
    limits (-180.0 0.0)
 end
  begin
     id 21 
     name lhand
     direction 1 -4.48951e-011 5.40064e-026   
     length 0.76799   
     axis -3.44607e-014 90 90   XYZ
    dof rx rz
    limits (-90.0 90.0)
           (-45.0 45.0)
  end
  begin
     id 22 
     name lfingers
     direction 1 -4.48971e-011 1.08013e-025   
     length 0.619174   
     axis -6.89214e-014 90 90   XYZ
    dof rx
    limits (0.0 90.0)
  end
  begin
     id 23
     name lthumb
     direction 0.707107 -6.34931e-011 0.707107   
     length 0.889013   
     axis -90 45 2.85299e-015   XYZ
    dof rx rz
    limits (-45.0 45.0)
           (-45.0 45.0)
  end
  begin
     id 24 
     name rclavicle
     direction -0.961409 0.252588 0.109054   
     length 4.04305  
     axis 0 0 0   XYZ 
    dof ry rz
    limits (-10.0 20.0)
           (-20.0 0.0)
  end
  begin
     id 25 
     name rhumerus
     direction -1 -4.4897e-011 1.33872e-017  
     length 4.70164   
     axis -180 30 90   XYZ
    dof rx ry rz
    limits (-90.0 60.0)
           (-90.0 90.0)
           (-90.0 90.0)
  end
  begin
     id 26 
     name rradius
     direction -1 -4.48954e-011 1.83844e-026   
     length 3.49911   
     axis -180 30 90   XYZ
    dof rx
    limits (-10.0 170.0)
  end
  begin
     id 27 
     name rwrist
     direction -1 -4.49008e-011 2.70032e-026   
     length 1.74955   
     axis -1.81515e-014 -90 -90   XYZ
    dof ry
    limits (-180.0 0.0)
  end
  begin
     id 28
     name rhand
     direction -1 -4.48916e-011 5.40064e-026   
     length 0.739335   
     axis -3.44607e-014 -90 -90   XYZ
    dof rx rz
    limits (-90.0 90.0)
           (-45.0 45.0)
  end
  begin
     id 29
     name rfingers
     direction -1 -4.48987e-011 1.08013e-025   
     length 0.596071   
     axis -6.89214e-014 -90 -90   XYZ
    dof rx
    limits (0.0 90.0)
  end
  begin
     id 30
     name rthumb
     direction -0.707107 -6.34935e-011 0.707107   
     length 0.855843   
     axis -90 -45 -2.85299e-015   XYZ
    dof rx rz
    limits (-45.0 45.0)
           (-45.0 45.0)
  end
:hierarchy
  begin
    root lhipjoint rhipjoint lowerback
    lhipjoint lfemur
    lfemur ltibia
    ltibia lfoot
    lfoot ltoes
    rhipjoint rfemur
    rfemur rtibia
    rtibia rfoot
    rfoot rtoes
    lowerback upperback
    upperback thorax
    thorax lowerneck lclavicle rclavicle
    lowerneck upperneck
    upperneck head
    lclavicle lhumerus
    lhumerus lradius
    lradius lwrist
    lwrist lhand lthumb
    lhand lfingers
    rclavicle rhumerus
    rhumerus rradius
    rradius rwrist
    rwrist rhand rthumb
    rhand rfingers
  end

#!OML:ASF I:\salsa\salsa 7_09\Patient 1\Session 1\dancermale.ASF
:FULLY-SPECIFIED
:DEGREES
1248
root 2.19364 16.5548 -4.5942 6.35056 38.8667 716.77
lowerback -0.598939 1.65759 -3.11286
upperback 0.530875 2.24628 -0.521928
thorax 0.781256 1.10667 1.23437
lowerneck -4.96846 9.15994 8.1434
upperneck 9.95517 12.4248 -7.07131
head 4.7485 6.07418 -2.69429
rclavicle 7.55382e-015 -5.56597e-015
rhumerus -47.1617 8.3683 -99.8245
rradius 74.1009
rwrist 17.0939
rhand -17.8165 2.61986
rfingers 7.12502
rthumb 8.44739 -27.1912
lclavicle 7.55382e-015 -5.56597e-015
lhumerus 13.4509 26.2371 72.8802
lradius 56.6399
lwrist 43.1175
lhand -17.5978 55.3418
lfingers 7.12502
lthumb 8.6585 -634.856
rfemur -24.6272 -10.17 23.0408
rtibia 44.7786
rfoot -27.6213 -19.3202
rtoes -1.2002
lfemur -17.7077 -1.57933 12.423
ltibia 12.7686
lfoot 14.829 33.6976
ltoes 20.0944
1249
root 2.16308 16.5452 -4.59897 6.92789 38.4805 717.085
lowerback -0.439401 1.7458 -3.76982
upperback 0.484139 2.36089 -0.431572
thorax 0.609081 1.1635 1.6877
lowerneck -4.91101 9.26246 8.13155
upperneck 9.57636 12.58 -7.38578
head 4.65439 6.13802 -2.78456
rclavicle 4.74101e-014 3.18055e-015
rhumerus -46.6662 9.50372 -100.023
rradius 73.8419
rwrist 17.0232
rhand -17.7627 2.77192
rfingers 7.12502
rthumb 8.49936 -27.037
lclavicle 4.74101e-014 3.18055e-015
lhumerus 14.541 27.251 72.2355
lradius 54.9288
lwrist 43.0377
lhand -18.0408 54.5486
lfingers 7.12502
lthumb 8.23098 -635.632
rfemur -25.3708 -10.0235 22.9398
rtibia 45.1374
rfoot -27.6399 -19.174
rtoes -0.939443
lfemur -17.3595 -1.81439 12.2771
ltibia 11.9109
lfoot 12.8465 35.5772
ltoes 24.6525
1250
root 2.13673 16.5278 -4.607 7.41986 38.0881 716.996
lowerback -0.517845 1.87858 -4.01403
upperback 0.405217 2.54052 -0.330524
thorax 0.546858 1.25403 1.92917
lowerneck -4.91498 9.37718 8.03764
upperneck 9.39472 12.7368 -7.4461
head 4.60976 6.2098 -2.77905
rclavicle -4.04527e-014 -1.98785e-014
rhumerus -46.2367 10.3379 -100.109
rradius 73.6806
rwrist 17.1772
rhand -17.8091 2.83088
rfingers 7.12502
rthumb 8.4546 -26.9799
lclavicle -4.04527e-014 -1.98785e-014
lhumerus 15.7805 28.2325 71.6927
lradius 53.1863
lwrist 43.0316
lhand -17.1737 53.4528
lfingers 7.12502
lthumb 9.06775 -636.762
rfemur -26.3146 -9.78613 23.2299
rtibia 45.4765
rfoot -27.6055 -19.0113
rtoes -0.352865
lfemur -17.1641 -2.20903 12.6671
ltibia 10.3257
lfoot 15.208 36.4887
ltoes 20.9242
1251
root 2.11599 16.529 -4.61061 8.9557 37.849 718.068
lowerback -0.988795 1.86293 -5.30219
upperback 0.26281 2.55692 -0.439846
thorax 0.613372 1.25816 2.54974
lowerneck -5.11021 9.52741 7.94806
upperneck 9.49819 12.9472 -7.49798
head 4.68815 6.30117 -2.75172
rclavicle -2.89232e-014 -4.77083e-015
rhumerus -45.9665 11.1866 -100.128
rradius 73.6152
rwrist 17.5122
rhand -17.9482 2.92209
rfingers 7.12502
rthumb 8.32032 -26.894
lclavicle -2.89232e-014 -4.77083e-015
lhumerus 16.9852 29.4746 71.2922
lradius 51.6576
lwrist 42.8776
lhand -16.9773 52.2827
lfingers 7.12502
lthumb 9.25724 -637.941
rfemur -27.6348 -9.88418 22.4575
rtibia 45.8896
rfoot -27.6289 -18.8826
rtoes 0.345742
lfemur -17.4811 -3.20312 11.994
ltibia 9.21734
lfoot 13.5 38.8574
ltoes 25.3508
1252
root 2.10869 16.5158 -4.63028 8.3179 37.9105 717.095
lowerback -0.443473 1.86593 -4.61765
upperback 0.335045 2.52095 -0.109105
thorax 0.398809 1.24574 2.4886
lowerneck -5.27977 9.67732 7.70795
upperneck 9.53701 13.1629 -7.50013
head 4.72944 6.39367 -2.68906
rclavicle 3.83654e-014 8.34896e-015
rhumerus -45.85 12.1306 -100.057
rradius 73.6201
rwrist 17.7719
rhand -18.0608 3.05643
rfingers 7.12502
rthumb 8.2117 -26.764
lclavicle 3.83654e-014 8.34896e-015
lhumerus 18.0164 30.7915 70.949
lradius 50.4231
lwrist 42.8268
lhand -17.0612 50.6084
lfingers 7.12502
lthumb 9.17633 -639.611
rfemur -27.665 -9.94259 23.3891
rtibia 45.905
rfoot -27.7017 -18.8198
rtoes 0.782949
lfemur -17.1208 -3.63144 13.0936
ltibia 8.44611
lfoot 13.2703 39.6241
ltoes 26.4156
1253
root 2.10582 16.5117 -4.64521 8.76878 37.8531 717.282
lowerback -0.364515 1.8701 -4.94251
upperback 0.311339 2.52312 -0.0409049
thorax 0.313157 1.24821 2.73656
lowerneck -5.41961 9.75828 7.43774
upperneck 9.53768 13.2825 -7.45557
head 4.74103 6.44162 -2.61851
rclavicle 1.23147e-013 2.42517e-014
rhumerus -45.913 12.7818 -99.8904
rradius 73.7878
rwrist 17.9865
rhand -18.2093 3.09859
rfingers 7.12502
rthumb 8.06831 -26.7274
lclavicle 1.23147e-013 2.42517e-014
lhumerus 19.1386 32.0813 70.7594
lradius 49.2002
lwrist 41.9819
lhand -16.1345 50.4756
lfingers 7.12502
lthumb 10.0704 -639.785
rfemur -28.1958 -10.0835 23.278
rtibia 46.0735
rfoot -27.8004 -18.7125
rtoes 1.61511
lfemur -17.2049 -4.06936 13.109
ltibia 7.86503
lfoot 13.5364 40.2926
ltoes 26.2154
1254
root 2.107 16.5057 -4.65999 9.15631 37.7115 717.387
lowerback -0.309983 1.9336 -5.12003
upperback 0.25704 2.60384 -0.0284255
thorax 0.211597 1.29163 2.84496
lowerneck -5.5935 9.8371 7.24984
upperneck 9.65134 13.3973 -7.39988
head 4.79702 6.48829 -2.55289
rclavicle -1.61016e-014 5.96354e-015
rhumerus -46.1557 13.1566 -99.7336
rradius 74.1128
rwrist 18.0991
rhand -18.4391 2.9577
rfingers 7.12502
rthumb 7.84654 -26.8767
lclavicle -1.61016e-014 5.96354e-015
lhumerus 20.3388 33.1856 70.6617
lradius 47.9888
lwrist 40.8414
lhand -15.5445 50.1815
lfingers 7.12502
lthumb 10.6396 -640.108
rfemur -28.7005 -10.1818 23.2179
rtibia 46.2282
rfoot -27.8414 -18.4883
rtoes 2.50481
lfemur -17.2338 -4.29877 13.1767
ltibia 7.37001
lfoot 13.7785 40.7445
ltoes 25.634
1255
root 2.11099 16.5025 -4.67214 9.45357 37.4899 717.393
lowerback -0.309784 2.01566 -5.18481
upperback 0.221286 2.71243 -0.0391847
thorax 0.162803 1.3477 2.86872
lowerneck -5.77233 9.9518 6.98372
upperneck 9.75413 13.5547 -7.23788
head 4.84054 6.55837 -2.44023
rclavicle -5.24792e-014 -8.34896e-015
rhumerus -46.4611 13.4878 -99.5849
rradius 74.4822
rwrist 17.9866
rhand -18.5727 2.90045
rfingers 7.12502
rthumb 7.71759 -26.9387
lclavicle -5.24792e-014 -8.34896e-015
lhumerus 21.9026 34.1751 70.4631
lradius 46.143
lwrist 39.4007
lhand -14.8622 49.5418
lfingers 7.12502
lthumb 11.2977 -640.782
rfemur -29.1669 -10.1859 23.2317
rtibia 46.3665
rfoot -27.8016 -18.3124
rtoes 2.89275
lfemur -17.1744 -4.5555 13.3684
ltibia 6.95685
lfoot 10.2681 42.4283
ltoes 31.3595
1256
root 2.1127 16.5047 -4.69283 9.79495 37.3475 717.625
lowerback -0.0811213 2.06018 -5.37553
upperback 0.165296 2.7567 -0.0955017
thorax -0.033047 1.37577 2.90635
lowerneck -5.86685 10.0048 6.7273
upperneck 9.72321 13.6418 -7.2209
head 4.83427 6.59102 -2.38594
rclavicle 1.75924e-014 -2.38542e-014
rhumerus -46.8107 13.8532 -99.3973
rradius 74.7874
rwrist 17.704
rhand -18.6935 2.94325
rfingers 7.12502
rthumb 7.60104 -26.9002
lclavicle 1.75924e-014 -2.38542e-014
lhumerus 23.6248 35.4063 70.6387
lradius 44.3462
lwrist 37.7906
lhand -14.005 48.9952
lfingers 7.12502
lthumb 12.1243 -641.376
rfemur -29.5736 -10.2778 23.0106
rtibia 46.5522
rfoot -27.7848 -18.2158
rtoes 3.02582
lfemur -17.2246 -4.86449 13.3083
ltibia 6.75414
lfoot 3.39797 44.3363
ltoes 40.5353
